<mxfile host="app.diagrams.net" agent="Mozilla/5.0 (Windows NT 10.0; Win64; x64) AppleWebKit/537.36 (KHTML, like Gecko) Chrome/131.0.0.0 Safari/537.36" version="25.0.3">
  <diagram name="Page-1" id="oRLKnbzLUdLxJh3TAafs">
    <mxGraphModel dx="1195" dy="622" grid="1" gridSize="10" guides="1" tooltips="1" connect="1" arrows="1" fold="1" page="1" pageScale="1" pageWidth="850" pageHeight="1100" math="0" shadow="0">
      <root>
        <mxCell id="0" />
        <mxCell id="1" parent="0" />
        <mxCell id="p3oYEEfRV0Kx4yx9NESx-6" style="edgeStyle=orthogonalEdgeStyle;rounded=0;orthogonalLoop=1;jettySize=auto;html=1;entryX=0.5;entryY=0;entryDx=0;entryDy=0;" edge="1" parent="1" source="p3oYEEfRV0Kx4yx9NESx-1" target="p3oYEEfRV0Kx4yx9NESx-2">
          <mxGeometry relative="1" as="geometry" />
        </mxCell>
        <mxCell id="p3oYEEfRV0Kx4yx9NESx-1" value="&lt;font style=&quot;font-size: 24px;&quot;&gt;start&lt;/font&gt;" style="strokeWidth=2;html=1;shape=mxgraph.flowchart.start_1;whiteSpace=wrap;" vertex="1" parent="1">
          <mxGeometry x="375" y="40" width="100" height="60" as="geometry" />
        </mxCell>
        <mxCell id="p3oYEEfRV0Kx4yx9NESx-7" style="edgeStyle=orthogonalEdgeStyle;rounded=0;orthogonalLoop=1;jettySize=auto;html=1;exitX=0.5;exitY=1;exitDx=0;exitDy=0;entryX=0.5;entryY=0;entryDx=0;entryDy=0;" edge="1" parent="1" source="p3oYEEfRV0Kx4yx9NESx-2" target="p3oYEEfRV0Kx4yx9NESx-4">
          <mxGeometry relative="1" as="geometry" />
        </mxCell>
        <mxCell id="p3oYEEfRV0Kx4yx9NESx-2" value="input start, end" style="shape=parallelogram;perimeter=parallelogramPerimeter;whiteSpace=wrap;html=1;fixedSize=1;" vertex="1" parent="1">
          <mxGeometry x="288" y="140" width="275" height="50" as="geometry" />
        </mxCell>
        <mxCell id="p3oYEEfRV0Kx4yx9NESx-3" value="&lt;font style=&quot;font-size: 24px;&quot;&gt;end&lt;/font&gt;" style="strokeWidth=2;html=1;shape=mxgraph.flowchart.start_1;whiteSpace=wrap;" vertex="1" parent="1">
          <mxGeometry x="375" y="580" width="100" height="60" as="geometry" />
        </mxCell>
        <mxCell id="p3oYEEfRV0Kx4yx9NESx-8" style="edgeStyle=orthogonalEdgeStyle;rounded=0;orthogonalLoop=1;jettySize=auto;html=1;entryX=0.5;entryY=0;entryDx=0;entryDy=0;" edge="1" parent="1" source="p3oYEEfRV0Kx4yx9NESx-4" target="p3oYEEfRV0Kx4yx9NESx-5">
          <mxGeometry relative="1" as="geometry" />
        </mxCell>
        <mxCell id="p3oYEEfRV0Kx4yx9NESx-4" value="for i = start, i&amp;lt;=end, i++" style="rhombus;whiteSpace=wrap;html=1;" vertex="1" parent="1">
          <mxGeometry x="342" y="250" width="166" height="90" as="geometry" />
        </mxCell>
        <mxCell id="p3oYEEfRV0Kx4yx9NESx-11" style="edgeStyle=orthogonalEdgeStyle;rounded=0;orthogonalLoop=1;jettySize=auto;html=1;entryX=0.5;entryY=0;entryDx=0;entryDy=0;" edge="1" parent="1" source="p3oYEEfRV0Kx4yx9NESx-5" target="p3oYEEfRV0Kx4yx9NESx-9">
          <mxGeometry relative="1" as="geometry" />
        </mxCell>
        <mxCell id="p3oYEEfRV0Kx4yx9NESx-5" value="for j = 1, j&amp;lt;=9, j++" style="rhombus;whiteSpace=wrap;html=1;" vertex="1" parent="1">
          <mxGeometry x="520" y="360" width="142" height="70" as="geometry" />
        </mxCell>
        <mxCell id="p3oYEEfRV0Kx4yx9NESx-12" style="edgeStyle=orthogonalEdgeStyle;rounded=0;orthogonalLoop=1;jettySize=auto;html=1;entryX=1;entryY=1;entryDx=0;entryDy=0;" edge="1" parent="1" source="p3oYEEfRV0Kx4yx9NESx-9" target="p3oYEEfRV0Kx4yx9NESx-4">
          <mxGeometry relative="1" as="geometry" />
        </mxCell>
        <mxCell id="p3oYEEfRV0Kx4yx9NESx-9" value="output&lt;br&gt;i, &quot;x&quot;, j , &quot;=&quot;, i*j" style="shape=parallelogram;perimeter=parallelogramPerimeter;whiteSpace=wrap;html=1;fixedSize=1;" vertex="1" parent="1">
          <mxGeometry x="517.75" y="470" width="146.5" height="40" as="geometry" />
        </mxCell>
        <mxCell id="p3oYEEfRV0Kx4yx9NESx-10" style="edgeStyle=orthogonalEdgeStyle;rounded=0;orthogonalLoop=1;jettySize=auto;html=1;entryX=0.5;entryY=0;entryDx=0;entryDy=0;entryPerimeter=0;" edge="1" parent="1" source="p3oYEEfRV0Kx4yx9NESx-4" target="p3oYEEfRV0Kx4yx9NESx-3">
          <mxGeometry relative="1" as="geometry" />
        </mxCell>
      </root>
    </mxGraphModel>
  </diagram>
</mxfile>
